<mxfile>
    <diagram id="nfbyJWQtqqHWuZD5Rj1X" name="Page-1">
        <mxGraphModel dx="758" dy="357" grid="1" gridSize="10" guides="1" tooltips="1" connect="1" arrows="1" fold="1" page="1" pageScale="1" pageWidth="850" pageHeight="1100" math="0" shadow="0">
            <root>
                <mxCell id="0"/>
                <mxCell id="1" parent="0"/>
                <mxCell id="2" value="" style="whiteSpace=wrap;html=1;aspect=fixed;" parent="1" vertex="1">
                    <mxGeometry x="40" y="10" width="200" height="200" as="geometry"/>
                </mxCell>
                <mxCell id="3" value="Programiranje cile stranice" style="text;html=1;resizable=0;autosize=1;align=center;verticalAlign=middle;points=[];fillColor=none;strokeColor=none;rounded=0;" parent="1" vertex="1">
                    <mxGeometry x="65" y="40" width="160" height="20" as="geometry"/>
                </mxCell>
                <mxCell id="5" value="Animacije" style="text;html=1;resizable=0;autosize=1;align=center;verticalAlign=middle;points=[];fillColor=none;strokeColor=none;rounded=0;" parent="1" vertex="1">
                    <mxGeometry x="105" y="80" width="70" height="20" as="geometry"/>
                </mxCell>
                <mxCell id="6" value="Responsive i mobilna verzija" style="text;html=1;resizable=0;autosize=1;align=center;verticalAlign=middle;points=[];fillColor=none;strokeColor=none;rounded=0;" parent="1" vertex="1">
                    <mxGeometry x="60" y="120" width="170" height="20" as="geometry"/>
                </mxCell>
                <mxCell id="7" value="Popravljanje detalja" style="text;html=1;resizable=0;autosize=1;align=center;verticalAlign=middle;points=[];fillColor=none;strokeColor=none;rounded=0;" parent="1" vertex="1">
                    <mxGeometry x="85" y="170" width="120" height="20" as="geometry"/>
                </mxCell>
            </root>
        </mxGraphModel>
    </diagram>
</mxfile>